<svg width="51" height="37" viewBox="0 0 51 37" fill="none" xmlns="http://www.w3.org/2000/svg">
<path d="M37.9485 19.5483C37.9485 19.5483 38.3397 17.5392 37.2127 16.8582C37.2127 16.8582 35.1389 12.2723 28.6515 16.6579L30.2605 19.1488L20.3152 8.63608C20.3152 8.63608 7.57585 6.94143 0.634418 0C0.109684 2.41916 -0.0767517 4.6367 0.0279884 6.661C0.0612411 6.79794 1.03922 10.6172 7.08934 12.2382C7.08934 12.2382 3.57202 12.4739 0.635983 10.5381C1.26859 12.8525 2.35105 14.8425 3.7794 16.5249C4.77309 17.3096 6.68689 18.2847 9.91959 18.0425C9.91959 18.0425 8.17442 18.7874 6.02051 18.7013C7.81517 20.1482 9.92981 21.2739 12.2505 22.0963C13.1104 22.1856 14.3068 22.0691 15.7956 21.3352C15.7956 21.3352 15.0383 22.0942 13.8567 22.6087C17.2656 23.5807 21.0348 23.9544 24.8394 23.7834L20.514 24.7213L9.5017 36.306C9.5017 36.306 10.7797 36.478 12.61 36.4992L15.2211 34.1557L14.019 36.4835C15.2408 36.4413 16.596 36.3185 17.9327 36.0467L19.5609 33.747L19.033 35.7849C21.8193 35.0229 24.3311 33.5074 25.113 30.5889L23.2364 30.4373C23.217 30.4357 33.5548 29.4729 34.4681 21.7507C34.7786 19.1265 36.4798 18.1216 37.9485 19.5483Z" fill="#1A1A1A"/>
<path d="M33.472 13.7949L35.0609 12.1157C35.0609 12.1157 45.0559 10.7861 50.502 5.34003C50.9128 7.23498 51.0597 8.97256 50.9785 10.5585C50.0197 11.3134 48.7335 12.0466 47.0101 12.6205C47.0101 12.6205 48.8037 12.6334 50.8539 11.8764C50.5151 14.3154 49.5994 16.3589 48.2598 18.032C47.2952 18.3732 46.0695 18.6063 44.5304 18.5829C44.5304 18.5829 45.7328 19.0137 47.3489 19.0501C45.6584 20.7445 43.4788 21.9832 41.0233 22.8015C40.3978 22.7358 39.6761 22.5629 38.861 22.2199C38.861 22.2199 39.359 22.663 40.1629 23.0675C38.5062 23.5428 36.7409 23.8379 34.9268 23.9622C35.1682 23.3105 35.3392 22.6122 35.4277 21.8641C35.7825 18.8655 37.209 20.177 38.5567 21.4863C38.9862 20.4763 39.5423 17.484 37.9668 16.2096C37.0425 14.5498 35.2819 13.7606 33.472 13.7949Z" fill="#1A1A1A"/>
</svg>
